HIERARCHY
ROOT Hips
{
	OFFSET 0.00000 0.00000 0.00000
	CHANNELS 6 Xposition Yposition Zposition Zrotation Yrotation Xrotation 
	JOINT LHipJoint
	{
		OFFSET 0 0 0
		CHANNELS 3 Zrotation Yrotation Xrotation
		JOINT LeftUpLeg
		{
			OFFSET 1.54859 -1.61379 0.86856
			CHANNELS 3 Zrotation Yrotation Xrotation
			JOINT LeftLeg
			{
				OFFSET 2.25087 -6.18423 0.00000
				CHANNELS 3 Zrotation Yrotation Xrotation
				JOINT LeftFoot
				{
					OFFSET 2.40328 -6.60297 0.00000
					CHANNELS 3 Zrotation Yrotation Xrotation
					JOINT LeftToeBase
					{
						OFFSET 0.17435 -0.47901 2.02453
						CHANNELS 3 Zrotation Yrotation Xrotation
						End Site
						{
							OFFSET 0.00000 -0.00000 1.04844
						}
					}
				}
			}
		}
	}
	JOINT RHipJoint
	{
		OFFSET 0 0 0
		CHANNELS 3 Zrotation Yrotation Xrotation
		JOINT RightUpLeg
		{
			OFFSET -1.54669 -1.61379 0.86856
			CHANNELS 3 Zrotation Yrotation Xrotation
			JOINT RightLeg
			{
				OFFSET -2.28132 -6.26789 0.00000
				CHANNELS 3 Zrotation Yrotation Xrotation
				JOINT RightFoot
				{
					OFFSET -2.51636 -6.91365 0.00000
					CHANNELS 3 Zrotation Yrotation Xrotation
					JOINT RightToeBase
					{
						OFFSET -0.15124 -0.41552 2.21090
						CHANNELS 3 Zrotation Yrotation Xrotation
						End Site
						{
							OFFSET -0.00000 -0.00000 1.13399
						}
					}
				}
			}
		}
	}
	JOINT LowerBack
	{
		OFFSET 0 0 0
		CHANNELS 3 Zrotation Yrotation Xrotation
		JOINT Spine
		{
			OFFSET -0.04287 2.26161 -0.25690
			CHANNELS 3 Zrotation Yrotation Xrotation
			JOINT Spine1
			{
				OFFSET 0.02248 2.28395 -0.10140
				CHANNELS 3 Zrotation Yrotation Xrotation
				JOINT Neck
				{
					OFFSET 0 0 0
					CHANNELS 3 Zrotation Yrotation Xrotation
					JOINT Neck1
					{
						OFFSET -0.11644 1.38496 0.11345
						CHANNELS 3 Zrotation Yrotation Xrotation
						JOINT Head
						{
							OFFSET 0.29383 1.36600 0.06642
							CHANNELS 3 Zrotation Yrotation Xrotation
							End Site
							{
								OFFSET 0.11075 1.41395 -0.00294
							}
						}
					}
				}
				JOINT LeftShoulder
				{
					OFFSET 0 0 0
					CHANNELS 3 Zrotation Yrotation Xrotation
					JOINT LeftArm
					{
						OFFSET 3.51628 0.59542 -0.30346
						CHANNELS 3 Zrotation Yrotation Xrotation
						JOINT LeftForeArm
						{
							OFFSET 4.76405 -0.00000 0.00000
							CHANNELS 3 Zrotation Yrotation Xrotation
							JOINT LeftHand
							{
								OFFSET 3.13759 -0.00000 -0.00000
								CHANNELS 3 Zrotation Yrotation Xrotation
								JOINT LeftFingerBase
								{
									OFFSET 0 0 0
									CHANNELS 3 Zrotation Yrotation Xrotation
									JOINT LeftHandIndex1
									{
										OFFSET 0.73226 -0.00000 -0.00000
										CHANNELS 3 Zrotation Yrotation Xrotation
										End Site
										{
											OFFSET 0.59037 -0.00000 -0.00000
										}
									}
								}
								JOINT LThumb
								{
									OFFSET 0 0 0
									CHANNELS 3 Zrotation Yrotation Xrotation
									End Site
									{
										OFFSET 0.59938 -0.00000 0.59938
									}
								}
							}
						}
					}
				}
				JOINT RightShoulder
				{
					OFFSET 0 0 0
					CHANNELS 3 Zrotation Yrotation Xrotation
					JOINT RightArm
					{
						OFFSET -3.30990 0.84213 -0.36430
						CHANNELS 3 Zrotation Yrotation Xrotation
						JOINT RightForeArm
						{
							OFFSET -5.10161 -0.00000 -0.00000
							CHANNELS 3 Zrotation Yrotation Xrotation
							JOINT RightHand
							{
								OFFSET -3.23267 -0.00000 -0.00000
								CHANNELS 3 Zrotation Yrotation Xrotation
								JOINT RightFingerBase
								{
									OFFSET 0 0 0
									CHANNELS 3 Zrotation Yrotation Xrotation
									JOINT RightHandIndex1
									{
										OFFSET -0.70200 -0.00000 -0.00000
										CHANNELS 3 Zrotation Yrotation Xrotation
										End Site
										{
											OFFSET -0.56597 -0.00000 -0.00000
										}
									}
								}
								JOINT RThumb
								{
									OFFSET 0 0 0
									CHANNELS 3 Zrotation Yrotation Xrotation
									End Site
									{
										OFFSET -0.57461 -0.00000 0.57461
									}
								}
							}
						}
					}
				}
			}
		}
	}
}
MOTION
Frames: 13
Frame Time: .0083333
-15.4034 14.2838 -2.7286 -192.6040 -28.6306 183.6060 0.0000 0.0000 0.0000 -14.8412 16.4138 -46.3098 17.4888 19.8481 82.6399 -0.0230 2.7153 -1.4013 0.7597 -5.5663 -15.5312 0.0000 0.0000 0.0000 20.8733 1.4911 -57.7022 -8.1497 -16.2282 53.0999 0.9239 18.5591 -1.7394 -5.0088 13.3937 -40.8607 -6.3928 2.0350 33.3754 -2.8764 -3.1614 14.1747 1.3543 -3.2017 -1.4236 -13.0024 6.7283 -5.3704 4.1745 9.2940 -11.3884 3.1787 4.8201 -3.3732 -0.0000 -0.0000 0.0000 -73.7566 -4.8082 -6.5289 34.1676 -44.2085 -14.2298 -0.0000 0.0000 -41.3293 19.9190 18.2381 6.4703 -7.1250 0.0000 -0.0000 -8.0234 49.1271 -0.8214 -0.0000 -0.0000 0.0000 77.7401 -1.2525 6.2680 -33.4851 43.6996 -13.7561 0.0000 -0.0000 -30.1551 -36.0130 31.5327 -20.8144 7.1250 -0.0000 -0.0000 -2.4160 7.1732 -2.7010
-15.7563 14.2088 -2.9025 -193.4570 -29.4527 183.5460 0.0000 0.0000 0.0000 -14.5534 15.8385 -45.7654 16.7078 19.7381 80.3339 -0.0052 1.6316 -1.6795 0.8692 -5.9446 -16.6238 0.0000 0.0000 0.0000 19.6501 2.8768 -56.3178 -7.5785 -15.8003 51.0298 0.6907 17.0239 -3.2210 -4.8627 13.2275 -40.2262 -6.8443 2.1834 33.9686 -2.9347 -3.2431 14.3084 1.5583 -3.2910 -1.4650 -14.5456 6.6448 -4.6179 5.8327 9.2694 -12.0733 3.8913 4.8254 -3.8463 0.0000 0.0000 0.0000 -73.4653 -5.5226 -6.5449 34.1597 -44.2027 -14.2243 -0.0000 0.0000 -41.1543 19.6123 18.4702 6.4407 -7.1250 0.0000 -0.0000 -8.3857 49.3199 -0.8990 0.0000 0.0000 0.0000 78.6720 -1.4385 4.9450 -32.8388 43.2058 -13.3116 0.0000 -0.0000 -30.2703 -35.8098 31.3399 -20.5688 7.1250 -0.0000 -0.0000 -2.3499 6.8959 -2.6171
-16.1111 14.1150 -3.0784 -194.4850 -30.2717 183.5520 0.0000 0.0000 0.0000 -14.4647 15.3670 -45.2647 15.8918 19.5904 77.9090 0.0091 0.7282 -2.2253 1.2270 -7.0253 -19.7904 0.0000 0.0000 0.0000 18.3771 4.0577 -55.2049 -7.2408 -15.5314 49.7794 0.2659 13.6761 -5.9080 -5.1225 13.5205 -41.3494 -7.3470 2.3436 34.4755 -3.1311 -3.3434 14.4888 1.6439 -3.3957 -1.4243 -12.9727 6.4384 -5.0835 4.9685 8.9389 -11.6196 3.4204 4.6201 -3.4855 -0.0000 0.0000 0.0000 -72.8925 -6.1589 -6.3747 34.2957 -44.3026 -14.3192 -0.0000 0.0000 -41.3924 19.4763 18.5917 6.4331 -7.1250 0.0000 -0.0000 -8.5526 49.4240 -0.9391 -0.0000 0.0000 0.0000 79.7366 -1.3443 3.7437 -31.9253 42.4876 -12.6904 0.0000 -0.0000 -30.5424 -35.6308 31.4828 -20.5216 7.1250 -0.0000 -0.0000 -2.2176 6.9914 -2.4728
-16.4778 14.0094 -3.2616 -195.6770 -31.1437 183.5710 0.0000 0.0000 0.0000 -14.6165 15.0445 -44.6261 15.0204 19.3948 75.2980 0.0253 0.0525 -3.0224 1.7351 -8.2911 -23.6018 0.0000 0.0000 0.0000 17.0073 4.7743 -54.2429 -7.1247 -15.4360 49.3444 -0.0903 9.4449 -8.1114 -5.2971 13.7107 -42.0908 -7.8103 2.5145 34.9016 -3.3699 -3.4189 14.7079 1.6511 -3.4904 -1.3157 -13.2249 6.2431 -4.5077 5.5115 8.6647 -12.0160 3.6153 4.4778 -3.7047 -0.0000 -0.0000 0.0000 -72.1699 -6.7953 -5.8745 34.4391 -44.4074 -14.4194 -0.0000 0.0000 -41.8916 19.2626 18.7386 6.4055 -7.1250 0.0000 -0.0000 -8.8027 49.5422 -0.9927 -0.0000 -0.0000 0.0000 80.7453 -1.3855 2.9428 -31.2258 41.9212 -12.2204 0.0000 -0.0000 -31.2143 -35.5916 31.2744 -20.3826 7.1250 -0.0000 -0.0000 -2.2449 6.7524 -2.4951
-16.8576 13.8926 -3.4517 -196.9430 -32.0153 183.6140 0.0000 0.0000 0.0000 -14.8585 14.8444 -44.0058 14.0894 19.1409 72.4774 0.0323 -0.0434 -3.3804 1.6380 -8.0674 -22.9189 0.0000 0.0000 0.0000 15.5121 5.1918 -53.2644 -7.1908 -15.4905 49.5924 -0.2387 6.0076 -9.0501 -4.7441 13.0897 -39.7050 -8.2944 2.6847 35.1553 -3.5778 -3.4799 14.9689 1.6875 -3.5866 -1.0971 -14.5010 6.1122 -3.6295 6.9858 8.5421 -12.7395 4.2467 4.4178 -4.1689 0.0000 0.0000 0.0000 -71.5055 -7.3222 -5.3136 34.7725 -44.6490 -14.6532 -0.0000 0.0000 -42.4927 18.9116 18.9865 6.3602 -7.1250 0.0000 -0.0000 -9.2175 49.7419 -1.0858 0.0000 0.0000 0.0000 81.5778 -1.3152 2.1472 -30.4944 41.3134 -11.7346 0.0000 -0.0000 -31.7314 -35.6775 30.7018 -20.1319 7.1250 -0.0000 -0.0000 -2.4258 6.1580 -2.6743
-17.2377 13.7598 -3.6424 -197.7970 -32.8594 183.6450 0.0000 0.0000 0.0000 -14.6873 14.5918 -43.8579 13.1574 18.8383 69.6137 0.0319 -0.1233 -3.3286 1.5891 -7.9520 -22.5683 0.0000 0.0000 0.0000 14.2639 5.7066 -52.2959 -7.3852 -15.6479 50.3165 -0.2406 4.7375 -8.8340 -3.8383 11.9420 -35.5271 -8.6574 2.7825 35.1573 -3.6509 -3.5078 15.1598 1.7897 -3.6470 -0.8684 -15.0357 5.9778 -3.0536 7.6031 8.3572 -13.1223 4.5168 4.3237 -4.4056 0.0000 0.0000 0.0000 -71.3281 -7.5132 -5.0147 35.5739 -45.2176 -15.2192 -0.0000 0.0000 -42.7362 18.3505 19.3089 6.2591 -7.1250 0.0000 -0.0000 -9.8623 49.9832 -1.2220 0.0000 0.0000 0.0000 82.1454 -1.1983 1.5098 -29.6431 40.5855 -11.1767 0.0000 -0.0000 -32.1914 -35.8040 30.3455 -20.0230 7.1250 -0.0000 -0.0000 -2.5782 5.8106 -2.8288
-17.6137 13.6135 -3.8291 -197.8100 -33.9003 183.4440 0.0000 0.0000 0.0000 -13.7386 14.0779 -44.1352 12.2339 18.4878 66.7282 0.0410 -0.7990 -3.6283 2.1308 -9.1333 -26.2131 0.0000 0.0000 0.0000 13.7732 6.1385 -51.5506 -7.7160 -15.9064 51.5333 -0.1593 5.9980 -7.7009 -3.0546 10.7829 -31.5511 -8.4137 2.6674 35.0970 -3.5325 -3.5072 15.1867 1.7869 -3.6243 -0.8259 -15.5352 5.8766 -2.5175 8.3737 8.2385 -13.4004 4.8327 4.2520 -4.6132 0.0000 -0.0000 0.0000 -71.0028 -7.6343 -4.6228 36.3143 -45.7281 -15.7471 -0.0000 0.0000 -42.8931 17.8549 19.6433 6.1802 -7.1250 0.0000 -0.0000 -10.4526 50.2446 -1.3642 0.0000 -0.0000 0.0000 82.5189 -1.3344 1.2060 -28.8380 39.8764 -10.6567 0.0000 -0.0000 -32.7695 -36.0420 29.8380 -19.9027 7.1250 -0.0000 -0.0000 -2.8275 5.3324 -3.0817
-17.9908 13.4502 -4.0084 -197.6160 -35.0354 183.1720 0.0000 0.0000 0.0000 -12.7580 13.6021 -44.7089 11.4129 18.1313 64.1153 0.0496 -1.5820 -3.9565 2.9929 -10.6836 -31.2201 0.0000 0.0000 0.0000 13.6018 6.4113 -51.3585 -8.2960 -16.3327 53.6219 0.0619 8.8935 -4.9892 -1.4185 7.5320 -21.3015 -7.6306 2.4749 34.9579 -3.5698 -3.4231 15.2732 1.3181 -3.5255 -0.7412 -15.6716 5.5650 -2.1442 9.1278 7.8545 -13.5247 5.1117 4.0316 -4.6925 0.0000 0.0000 0.0000 -70.2201 -8.1857 -4.0006 36.8142 -46.0649 -16.1061 -0.0000 0.0000 -42.7736 17.4864 19.5833 6.0277 -7.1250 0.0000 -0.0000 -10.7879 50.1251 -1.3769 0.0000 0.0000 0.0000 83.2429 -1.4716 0.7757 -28.1106 39.2179 -10.1935 0.0000 -0.0000 -33.1839 -36.3322 29.0803 -19.6693 7.1250 -0.0000 -0.0000 -3.1624 4.5923 -3.4105
-18.3415 13.3404 -4.1640 -197.6030 -35.9946 183.0150 0.0000 0.0000 0.0000 -12.3072 13.3605 -45.2149 10.5069 17.6852 61.1695 0.0340 -2.0179 -3.3551 4.2871 -12.5330 -37.6446 0.0000 0.0000 0.0000 13.6668 6.4056 -52.0884 -9.2390 -16.9591 56.9131 0.4168 11.7162 1.2277 -0.1999 -2.8787 7.9412 -7.1333 2.4471 34.9478 -3.4894 -3.2267 15.2531 1.0906 -3.3793 -0.7940 -15.7886 5.1450 -1.9710 9.6870 7.3236 -13.4718 5.3404 3.7495 -4.6547 0.0000 0.0000 0.0000 -69.7979 -8.7963 -3.3218 37.3138 -46.3954 -16.4669 -0.0000 0.0000 -42.4361 17.0313 19.3943 5.8082 -7.1250 0.0000 -0.0000 -11.1607 49.8626 -1.3528 0.0000 0.0000 0.0000 83.6792 -1.5172 0.1952 -27.3304 38.4925 -9.7041 0.0000 -0.0000 -33.2851 -36.4893 28.5228 -19.4532 7.1250 -0.0000 -0.0000 -3.3763 4.0255 -3.6111
-18.7121 13.1280 -4.3035 -197.4210 -36.6955 182.6720 0.0000 0.0000 0.0000 -11.3334 12.6682 -45.9621 9.7482 17.2658 58.6433 0.0104 -2.3456 -2.2989 5.2035 -13.6094 -41.6947 0.0000 0.0000 0.0000 12.2992 8.0608 -53.5256 -10.6114 -17.7396 61.5132 -0.0370 7.4395 -6.0065 -3.7358 11.8003 -35.0292 -6.4876 2.6651 35.3726 -3.2280 -2.7256 15.1800 0.8926 -3.0816 -1.0615 -15.0577 4.4213 -2.6972 9.3417 6.3898 -12.8909 5.1765 3.2807 -4.1961 0.0000 0.0000 0.0000 -69.5954 -9.8346 -2.2890 37.7422 -46.6738 -16.7778 -0.0000 0.0000 -42.0474 16.6110 19.5836 5.7101 -7.1250 0.0000 -0.0000 -11.6301 49.9876 -1.4472 0.0000 0.0000 0.0000 83.8387 -1.3369 -0.9310 -26.3712 37.5729 -9.1131 0.0000 -0.0000 -33.1259 -36.6032 28.1083 -19.2870 7.1250 -0.0000 -0.0000 -3.5331 3.6011 -3.7550
-19.0714 12.9696 -4.4319 -197.4430 -36.9117 182.3000 0.0000 0.0000 0.0000 -10.2613 11.7213 -45.5998 8.7885 16.6697 55.3559 -0.0028 -2.5584 -1.6040 5.2425 -13.6518 -41.8601 0.0000 0.0000 0.0000 9.6797 10.1529 -54.9912 -12.1887 -18.4693 66.5857 -0.2047 5.1901 -8.2946 -3.4506 11.3910 -33.6102 -6.1663 3.0783 35.7953 -3.0550 -2.1291 15.1629 0.7295 -2.7729 -1.2531 -17.8402 4.2900 -0.7516 12.0459 6.2284 -14.8377 6.5221 3.1733 -5.2551 -0.0000 0.0000 0.0000 -69.4818 -10.7544 -1.4853 38.3005 -47.0302 -17.1852 -0.0000 0.0000 -41.7459 16.4903 19.7321 5.7075 -7.1250 0.0000 -0.0000 -11.7986 50.1178 -1.5068 -0.0000 0.0000 0.0000 83.8623 -0.6559 -2.3803 -25.0586 36.2638 -8.3245 0.0000 -0.0000 -31.9116 -36.5088 27.8203 -19.0575 7.1250 -0.0000 -0.0000 -3.5426 3.2495 -3.7447
-19.4173 12.8306 -4.5650 -196.6380 -36.2887 181.2250 0.0000 0.0000 0.0000 -8.8307 12.2892 -45.5242 7.9362 16.0721 52.3324 -0.0137 -3.4389 -1.6675 7.5593 -15.7854 -50.9594 0.0000 0.0000 0.0000 8.7165 11.9322 -55.6936 -13.5580 -18.9745 70.8498 -0.4681 2.3629 -12.3258 -4.9755 13.3562 -40.7168 -5.6713 3.7326 36.3340 -3.0349 -1.2574 15.2271 0.2207 -2.3438 -1.4077 -15.7833 3.7542 -1.8002 10.8768 5.5274 -14.3367 5.8409 2.7924 -4.7233 -0.0000 0.0000 0.0000 -68.8663 -11.3825 -0.8645 39.1721 -47.5717 -17.8257 -0.0000 0.0000 -41.9928 16.8400 19.5939 5.7959 -7.1250 0.0000 -0.0000 -11.4137 50.0339 -1.4327 -0.0000 0.0000 0.0000 84.4154 0.7359 -4.5279 -23.6071 34.7460 -7.4814 0.0000 -0.0000 -29.2570 -36.0320 27.6798 -18.6699 7.1250 -0.0000 -0.0000 -3.3001 2.9411 -3.4707
-19.7600 12.7271 -4.6842 -195.8280 -36.1395 179.2360 0.0000 0.0000 0.0000 -7.1836 12.3939 -43.6982 6.9245 15.2680 48.5884 -0.0322 -4.1174 -1.2798 8.6007 -16.5438 -54.6987 0.0000 0.0000 0.0000 8.7850 11.7464 -54.8526 -14.5515 -19.2729 73.8820 -0.3302 0.5907 -10.6624 -2.4990 9.8361 -28.4475 -4.9449 4.2165 38.0304 -2.9052 -0.7678 15.4432 -0.2063 -2.1616 -1.5974 -14.7176 3.4604 -2.2083 10.2329 5.1025 -14.7044 5.4860 2.5527 -4.6656 -0.0000 0.0000 0.0000 -68.3486 -11.9932 -0.5173 40.2687 -48.2283 -18.6394 -0.0000 0.0000 -42.7788 17.4525 19.5017 5.9915 -7.1250 0.0000 -0.0000 -10.7926 50.0372 -1.3540 -0.0000 0.0000 0.0000 84.5858 2.4049 -6.1303 -22.4217 33.4504 -6.8169 0.0000 -0.0000 -27.3335 -35.3932 28.0437 -18.4709 7.1250 -0.0000 -0.0000 -2.8560 3.1460 -3.0121
